# xmcd
#
# Track frame offsets:
#	150
#	11138
#	28095
#	44527
#	58238
#	69204
#	82666
#	102143
#	114690
#	129539
#	148881
#	161226
#	176083
#	192380
#	208234
#	224892
#
# Disc length: 3192 seconds
#
# Revision: 1
# Processed by: cddbd v1.5.2PL0 Copyright (c) Steve Scherf et al.
# Submitted via: audiograbber 1.83.01
#
DISCID=fb0c7610
DTITLE=Ronnie Milsap - 16 Biggest Hits (remastered9
DYEAR=2007
DGENRE=Country
TTITLE0=Pure Love
TTITLE1=Smokey Mountain Rain
TTITLE2=It Was Almost Like A Song
TTITLE3=(I'm A) Stand By My Woman Man
TTITLE4=Daydreams About Night Things
TTITLE5=(I'd Be) A Legend In My Time
TTITLE6=Lost In The Fifties Tonight (In The Still Of The Night)
TTITLE7=Please Don't Tell Me How The Story Ends
TTITLE8=(There's) No Gettin' Over Me
TTITLE9=Stranger In My House
TTITLE10=My Heart
TTITLE11=A Woman In Love
TTITLE12=I Wouldn't Have Missed It For The World
TTITLE13=Only One Love In My Life
TTITLE14=Any Day Now
TTITLE15=Let My Love Be Your Pillow
EXTD=
EXTT0=
EXTT1=
EXTT2=
EXTT3=
EXTT4=
EXTT5=
EXTT6=
EXTT7=
EXTT8=
EXTT9=
EXTT10=
EXTT11=
EXTT12=
EXTT13=
EXTT14=
EXTT15=
PLAYORDER=
